<mxfile host="app.diagrams.net" agent="Mozilla/5.0 (Windows NT 10.0; Win64; x64) AppleWebKit/537.36 (KHTML, like Gecko) Chrome/133.0.0.0 Safari/537.36" version="26.0.16">
  <diagram name="Halaman-1" id="GOkIjBgsJjaYa8lybb5z">
    <mxGraphModel dx="688" dy="762" grid="1" gridSize="10" guides="1" tooltips="1" connect="1" arrows="1" fold="1" page="1" pageScale="1" pageWidth="827" pageHeight="1169" math="0" shadow="0">
      <root>
        <mxCell id="0" />
        <mxCell id="1" parent="0" />
        <mxCell id="Ip7737abw6meWCq8FaQO-1" value="Role" style="whiteSpace=wrap;html=1;align=center;" vertex="1" parent="1">
          <mxGeometry x="150" y="219" width="100" height="40" as="geometry" />
        </mxCell>
        <mxCell id="Ip7737abw6meWCq8FaQO-2" value="id" style="ellipse;whiteSpace=wrap;html=1;align=center;" vertex="1" parent="1">
          <mxGeometry x="100" y="165" width="70" height="30" as="geometry" />
        </mxCell>
        <mxCell id="Ip7737abw6meWCq8FaQO-3" value="nama" style="ellipse;whiteSpace=wrap;html=1;align=center;" vertex="1" parent="1">
          <mxGeometry x="250" y="165" width="70" height="30" as="geometry" />
        </mxCell>
        <mxCell id="Ip7737abw6meWCq8FaQO-4" value="" style="endArrow=none;html=1;rounded=0;entryX=0.5;entryY=1;entryDx=0;entryDy=0;exitX=0.75;exitY=0;exitDx=0;exitDy=0;" edge="1" parent="1" source="Ip7737abw6meWCq8FaQO-1" target="Ip7737abw6meWCq8FaQO-3">
          <mxGeometry relative="1" as="geometry">
            <mxPoint x="197.5" y="225" as="sourcePoint" />
            <mxPoint x="265" y="195" as="targetPoint" />
          </mxGeometry>
        </mxCell>
        <mxCell id="Ip7737abw6meWCq8FaQO-5" value="" style="endArrow=none;html=1;rounded=0;entryX=0.5;entryY=1;entryDx=0;entryDy=0;exitX=0.25;exitY=0;exitDx=0;exitDy=0;" edge="1" parent="1" source="Ip7737abw6meWCq8FaQO-1" target="Ip7737abw6meWCq8FaQO-2">
          <mxGeometry relative="1" as="geometry">
            <mxPoint x="200" y="225" as="sourcePoint" />
            <mxPoint x="275" y="205" as="targetPoint" />
          </mxGeometry>
        </mxCell>
        <mxCell id="Ip7737abw6meWCq8FaQO-6" value="Users" style="whiteSpace=wrap;html=1;align=center;" vertex="1" parent="1">
          <mxGeometry x="600" y="220" width="100" height="40" as="geometry" />
        </mxCell>
        <mxCell id="Ip7737abw6meWCq8FaQO-7" value="id" style="ellipse;whiteSpace=wrap;html=1;align=center;" vertex="1" parent="1">
          <mxGeometry x="500" y="180" width="70" height="30" as="geometry" />
        </mxCell>
        <mxCell id="Ip7737abw6meWCq8FaQO-8" value="nama" style="ellipse;whiteSpace=wrap;html=1;align=center;" vertex="1" parent="1">
          <mxGeometry x="615" y="130" width="70" height="30" as="geometry" />
        </mxCell>
        <mxCell id="Ip7737abw6meWCq8FaQO-9" value="" style="endArrow=none;html=1;rounded=0;entryX=0.5;entryY=1;entryDx=0;entryDy=0;exitX=0.5;exitY=0;exitDx=0;exitDy=0;" edge="1" parent="1" source="Ip7737abw6meWCq8FaQO-6" target="Ip7737abw6meWCq8FaQO-8">
          <mxGeometry relative="1" as="geometry">
            <mxPoint x="647.5" y="220" as="sourcePoint" />
            <mxPoint x="750" y="180" as="targetPoint" />
          </mxGeometry>
        </mxCell>
        <mxCell id="Ip7737abw6meWCq8FaQO-10" value="" style="endArrow=none;html=1;rounded=0;entryX=0.5;entryY=1;entryDx=0;entryDy=0;exitX=0;exitY=0.25;exitDx=0;exitDy=0;" edge="1" parent="1" source="Ip7737abw6meWCq8FaQO-6" target="Ip7737abw6meWCq8FaQO-7">
          <mxGeometry relative="1" as="geometry">
            <mxPoint x="650" y="220" as="sourcePoint" />
            <mxPoint x="545" y="220" as="targetPoint" />
          </mxGeometry>
        </mxCell>
        <mxCell id="Ip7737abw6meWCq8FaQO-12" value="email" style="ellipse;whiteSpace=wrap;html=1;align=center;" vertex="1" parent="1">
          <mxGeometry x="680" y="160" width="80" height="30" as="geometry" />
        </mxCell>
        <mxCell id="Ip7737abw6meWCq8FaQO-13" value="" style="endArrow=none;html=1;rounded=0;entryX=0.5;entryY=1;entryDx=0;entryDy=0;exitX=0.75;exitY=0;exitDx=0;exitDy=0;" edge="1" parent="1" target="Ip7737abw6meWCq8FaQO-12" source="Ip7737abw6meWCq8FaQO-6">
          <mxGeometry relative="1" as="geometry">
            <mxPoint x="715" y="250" as="sourcePoint" />
            <mxPoint x="815" y="210" as="targetPoint" />
          </mxGeometry>
        </mxCell>
        <mxCell id="Ip7737abw6meWCq8FaQO-14" value="role_id" style="ellipse;whiteSpace=wrap;html=1;align=center;" vertex="1" parent="1">
          <mxGeometry x="540" y="135" width="70" height="30" as="geometry" />
        </mxCell>
        <mxCell id="Ip7737abw6meWCq8FaQO-15" value="" style="endArrow=none;html=1;rounded=0;entryX=0.5;entryY=1;entryDx=0;entryDy=0;exitX=0.25;exitY=0;exitDx=0;exitDy=0;" edge="1" parent="1" target="Ip7737abw6meWCq8FaQO-14" source="Ip7737abw6meWCq8FaQO-6">
          <mxGeometry relative="1" as="geometry">
            <mxPoint x="670" y="240" as="sourcePoint" />
            <mxPoint x="770" y="200" as="targetPoint" />
          </mxGeometry>
        </mxCell>
        <mxCell id="Ip7737abw6meWCq8FaQO-16" value="eskul_id" style="ellipse;whiteSpace=wrap;html=1;align=center;" vertex="1" parent="1">
          <mxGeometry x="730" y="225" width="70" height="30" as="geometry" />
        </mxCell>
        <mxCell id="Ip7737abw6meWCq8FaQO-17" value="" style="endArrow=none;html=1;rounded=0;exitX=1;exitY=0.5;exitDx=0;exitDy=0;entryX=0;entryY=0.5;entryDx=0;entryDy=0;" edge="1" parent="1" target="Ip7737abw6meWCq8FaQO-16" source="Ip7737abw6meWCq8FaQO-6">
          <mxGeometry relative="1" as="geometry">
            <mxPoint x="775" y="300" as="sourcePoint" />
            <mxPoint x="730" y="240" as="targetPoint" />
          </mxGeometry>
        </mxCell>
        <mxCell id="Ip7737abw6meWCq8FaQO-18" value="Memiliki" style="shape=rhombus;perimeter=rhombusPerimeter;whiteSpace=wrap;html=1;align=center;" vertex="1" parent="1">
          <mxGeometry x="350" y="210" width="120" height="60" as="geometry" />
        </mxCell>
        <mxCell id="Ip7737abw6meWCq8FaQO-20" value="" style="endArrow=none;html=1;rounded=0;entryX=0;entryY=0.5;entryDx=0;entryDy=0;exitX=1;exitY=0.5;exitDx=0;exitDy=0;" edge="1" parent="1" source="Ip7737abw6meWCq8FaQO-18" target="Ip7737abw6meWCq8FaQO-6">
          <mxGeometry relative="1" as="geometry">
            <mxPoint x="480" y="240" as="sourcePoint" />
            <mxPoint x="600" y="239.5" as="targetPoint" />
          </mxGeometry>
        </mxCell>
        <mxCell id="Ip7737abw6meWCq8FaQO-21" value="N" style="resizable=0;html=1;whiteSpace=wrap;align=right;verticalAlign=bottom;" connectable="0" vertex="1" parent="Ip7737abw6meWCq8FaQO-20">
          <mxGeometry x="1" relative="1" as="geometry">
            <mxPoint x="-50" as="offset" />
          </mxGeometry>
        </mxCell>
        <mxCell id="Ip7737abw6meWCq8FaQO-22" value="" style="endArrow=none;html=1;rounded=0;entryX=0;entryY=0.5;entryDx=0;entryDy=0;exitX=1;exitY=0.5;exitDx=0;exitDy=0;" edge="1" parent="1" source="Ip7737abw6meWCq8FaQO-1" target="Ip7737abw6meWCq8FaQO-18">
          <mxGeometry relative="1" as="geometry">
            <mxPoint x="250" y="239.5" as="sourcePoint" />
            <mxPoint x="330" y="250" as="targetPoint" />
          </mxGeometry>
        </mxCell>
        <mxCell id="Ip7737abw6meWCq8FaQO-23" value="1" style="resizable=0;html=1;whiteSpace=wrap;align=right;verticalAlign=bottom;" connectable="0" vertex="1" parent="Ip7737abw6meWCq8FaQO-22">
          <mxGeometry x="1" relative="1" as="geometry">
            <mxPoint x="-30" as="offset" />
          </mxGeometry>
        </mxCell>
        <mxCell id="Ip7737abw6meWCq8FaQO-24" value="tb_eskul" style="whiteSpace=wrap;html=1;align=center;" vertex="1" parent="1">
          <mxGeometry x="150" y="400" width="100" height="40" as="geometry" />
        </mxCell>
        <mxCell id="Ip7737abw6meWCq8FaQO-32" value="id" style="ellipse;whiteSpace=wrap;html=1;align=center;" vertex="1" parent="1">
          <mxGeometry x="70" y="370" width="70" height="30" as="geometry" />
        </mxCell>
        <mxCell id="Ip7737abw6meWCq8FaQO-33" value="eskul" style="ellipse;whiteSpace=wrap;html=1;align=center;" vertex="1" parent="1">
          <mxGeometry x="110" y="340" width="70" height="30" as="geometry" />
        </mxCell>
        <mxCell id="Ip7737abw6meWCq8FaQO-34" value="" style="endArrow=none;html=1;rounded=0;entryX=0.5;entryY=1;entryDx=0;entryDy=0;exitX=0.25;exitY=0;exitDx=0;exitDy=0;" edge="1" parent="1" target="Ip7737abw6meWCq8FaQO-33" source="Ip7737abw6meWCq8FaQO-24">
          <mxGeometry relative="1" as="geometry">
            <mxPoint x="205" y="424" as="sourcePoint" />
            <mxPoint x="245" y="400" as="targetPoint" />
          </mxGeometry>
        </mxCell>
        <mxCell id="Ip7737abw6meWCq8FaQO-35" value="" style="endArrow=none;html=1;rounded=0;entryX=0.5;entryY=1;entryDx=0;entryDy=0;exitX=0;exitY=0.5;exitDx=0;exitDy=0;" edge="1" parent="1" target="Ip7737abw6meWCq8FaQO-32" source="Ip7737abw6meWCq8FaQO-24">
          <mxGeometry relative="1" as="geometry">
            <mxPoint x="130" y="450" as="sourcePoint" />
            <mxPoint x="255" y="410" as="targetPoint" />
          </mxGeometry>
        </mxCell>
        <mxCell id="Ip7737abw6meWCq8FaQO-36" value="artikel" style="ellipse;whiteSpace=wrap;html=1;align=center;" vertex="1" parent="1">
          <mxGeometry x="165" y="317" width="70" height="30" as="geometry" />
        </mxCell>
        <mxCell id="Ip7737abw6meWCq8FaQO-37" value="" style="endArrow=none;html=1;rounded=0;entryX=0.5;entryY=1;entryDx=0;entryDy=0;exitX=0.5;exitY=0;exitDx=0;exitDy=0;" edge="1" parent="1" target="Ip7737abw6meWCq8FaQO-36" source="Ip7737abw6meWCq8FaQO-24">
          <mxGeometry relative="1" as="geometry">
            <mxPoint x="175" y="380" as="sourcePoint" />
            <mxPoint x="300" y="380" as="targetPoint" />
          </mxGeometry>
        </mxCell>
        <mxCell id="Ip7737abw6meWCq8FaQO-38" value="foto" style="ellipse;whiteSpace=wrap;html=1;align=center;" vertex="1" parent="1">
          <mxGeometry x="220" y="341" width="70" height="30" as="geometry" />
        </mxCell>
        <mxCell id="Ip7737abw6meWCq8FaQO-39" value="" style="endArrow=none;html=1;rounded=0;entryX=0.5;entryY=1;entryDx=0;entryDy=0;exitX=0.75;exitY=0;exitDx=0;exitDy=0;" edge="1" parent="1" target="Ip7737abw6meWCq8FaQO-38" source="Ip7737abw6meWCq8FaQO-24">
          <mxGeometry relative="1" as="geometry">
            <mxPoint x="300" y="400" as="sourcePoint" />
            <mxPoint x="370" y="400" as="targetPoint" />
          </mxGeometry>
        </mxCell>
        <mxCell id="Ip7737abw6meWCq8FaQO-40" value="status" style="ellipse;whiteSpace=wrap;html=1;align=center;" vertex="1" parent="1">
          <mxGeometry x="260" y="371" width="70" height="30" as="geometry" />
        </mxCell>
        <mxCell id="Ip7737abw6meWCq8FaQO-41" value="" style="endArrow=none;html=1;rounded=0;entryX=0.5;entryY=1;entryDx=0;entryDy=0;exitX=1;exitY=0.5;exitDx=0;exitDy=0;" edge="1" parent="1" target="Ip7737abw6meWCq8FaQO-40" source="Ip7737abw6meWCq8FaQO-24">
          <mxGeometry relative="1" as="geometry">
            <mxPoint x="345" y="430" as="sourcePoint" />
            <mxPoint x="415" y="430" as="targetPoint" />
          </mxGeometry>
        </mxCell>
        <mxCell id="Ip7737abw6meWCq8FaQO-42" value="password" style="ellipse;whiteSpace=wrap;html=1;align=center;" vertex="1" parent="1">
          <mxGeometry x="670" y="280" width="70" height="30" as="geometry" />
        </mxCell>
        <mxCell id="Ip7737abw6meWCq8FaQO-43" value="" style="endArrow=none;html=1;rounded=0;entryX=0.5;entryY=0;entryDx=0;entryDy=0;exitX=0.9;exitY=1.017;exitDx=0;exitDy=0;exitPerimeter=0;" edge="1" parent="1" target="Ip7737abw6meWCq8FaQO-42" source="Ip7737abw6meWCq8FaQO-6">
          <mxGeometry relative="1" as="geometry">
            <mxPoint x="795" y="329" as="sourcePoint" />
            <mxPoint x="865" y="329" as="targetPoint" />
          </mxGeometry>
        </mxCell>
        <mxCell id="Ip7737abw6meWCq8FaQO-44" value="tb_pendaftaran" style="whiteSpace=wrap;html=1;align=center;" vertex="1" parent="1">
          <mxGeometry x="600" y="454" width="100" height="40" as="geometry" />
        </mxCell>
        <mxCell id="Ip7737abw6meWCq8FaQO-45" value="nis" style="ellipse;whiteSpace=wrap;html=1;align=center;" vertex="1" parent="1">
          <mxGeometry x="520" y="424" width="70" height="30" as="geometry" />
        </mxCell>
        <mxCell id="Ip7737abw6meWCq8FaQO-46" value="nama" style="ellipse;whiteSpace=wrap;html=1;align=center;" vertex="1" parent="1">
          <mxGeometry x="560" y="394" width="70" height="30" as="geometry" />
        </mxCell>
        <mxCell id="Ip7737abw6meWCq8FaQO-47" value="" style="endArrow=none;html=1;rounded=0;entryX=0.5;entryY=1;entryDx=0;entryDy=0;exitX=0.25;exitY=0;exitDx=0;exitDy=0;" edge="1" parent="1" source="Ip7737abw6meWCq8FaQO-44" target="Ip7737abw6meWCq8FaQO-46">
          <mxGeometry relative="1" as="geometry">
            <mxPoint x="655" y="478" as="sourcePoint" />
            <mxPoint x="695" y="454" as="targetPoint" />
          </mxGeometry>
        </mxCell>
        <mxCell id="Ip7737abw6meWCq8FaQO-48" value="" style="endArrow=none;html=1;rounded=0;entryX=0.5;entryY=1;entryDx=0;entryDy=0;exitX=0;exitY=0.5;exitDx=0;exitDy=0;" edge="1" parent="1" source="Ip7737abw6meWCq8FaQO-44" target="Ip7737abw6meWCq8FaQO-45">
          <mxGeometry relative="1" as="geometry">
            <mxPoint x="580" y="504" as="sourcePoint" />
            <mxPoint x="705" y="464" as="targetPoint" />
          </mxGeometry>
        </mxCell>
        <mxCell id="Ip7737abw6meWCq8FaQO-49" value="kelas" style="ellipse;whiteSpace=wrap;html=1;align=center;" vertex="1" parent="1">
          <mxGeometry x="615" y="371" width="70" height="30" as="geometry" />
        </mxCell>
        <mxCell id="Ip7737abw6meWCq8FaQO-50" value="" style="endArrow=none;html=1;rounded=0;entryX=0.5;entryY=1;entryDx=0;entryDy=0;exitX=0.5;exitY=0;exitDx=0;exitDy=0;" edge="1" parent="1" source="Ip7737abw6meWCq8FaQO-44" target="Ip7737abw6meWCq8FaQO-49">
          <mxGeometry relative="1" as="geometry">
            <mxPoint x="625" y="434" as="sourcePoint" />
            <mxPoint x="750" y="434" as="targetPoint" />
          </mxGeometry>
        </mxCell>
        <mxCell id="Ip7737abw6meWCq8FaQO-51" value="jenis_kelamin" style="ellipse;whiteSpace=wrap;html=1;align=center;" vertex="1" parent="1">
          <mxGeometry x="670" y="395" width="100" height="30" as="geometry" />
        </mxCell>
        <mxCell id="Ip7737abw6meWCq8FaQO-52" value="" style="endArrow=none;html=1;rounded=0;entryX=0.5;entryY=1;entryDx=0;entryDy=0;exitX=0.75;exitY=0;exitDx=0;exitDy=0;" edge="1" parent="1" source="Ip7737abw6meWCq8FaQO-44" target="Ip7737abw6meWCq8FaQO-51">
          <mxGeometry relative="1" as="geometry">
            <mxPoint x="750" y="454" as="sourcePoint" />
            <mxPoint x="820" y="454" as="targetPoint" />
          </mxGeometry>
        </mxCell>
        <mxCell id="Ip7737abw6meWCq8FaQO-53" value="no_hp" style="ellipse;whiteSpace=wrap;html=1;align=center;" vertex="1" parent="1">
          <mxGeometry x="730" y="431" width="70" height="30" as="geometry" />
        </mxCell>
        <mxCell id="Ip7737abw6meWCq8FaQO-54" value="" style="endArrow=none;html=1;rounded=0;entryX=0;entryY=1;entryDx=0;entryDy=0;exitX=1;exitY=0.25;exitDx=0;exitDy=0;" edge="1" parent="1" source="Ip7737abw6meWCq8FaQO-44" target="Ip7737abw6meWCq8FaQO-53">
          <mxGeometry relative="1" as="geometry">
            <mxPoint x="795" y="484" as="sourcePoint" />
            <mxPoint x="865" y="484" as="targetPoint" />
          </mxGeometry>
        </mxCell>
        <mxCell id="Ip7737abw6meWCq8FaQO-55" value="email" style="ellipse;whiteSpace=wrap;html=1;align=center;" vertex="1" parent="1">
          <mxGeometry x="740" y="480" width="70" height="30" as="geometry" />
        </mxCell>
        <mxCell id="Ip7737abw6meWCq8FaQO-56" value="" style="endArrow=none;html=1;rounded=0;entryX=0;entryY=0.5;entryDx=0;entryDy=0;exitX=1;exitY=0.75;exitDx=0;exitDy=0;" edge="1" parent="1" target="Ip7737abw6meWCq8FaQO-55" source="Ip7737abw6meWCq8FaQO-44">
          <mxGeometry relative="1" as="geometry">
            <mxPoint x="710" y="484" as="sourcePoint" />
            <mxPoint x="875" y="494" as="targetPoint" />
          </mxGeometry>
        </mxCell>
        <mxCell id="Ip7737abw6meWCq8FaQO-58" value="alamat" style="ellipse;whiteSpace=wrap;html=1;align=center;" vertex="1" parent="1">
          <mxGeometry x="680" y="510" width="70" height="30" as="geometry" />
        </mxCell>
        <mxCell id="Ip7737abw6meWCq8FaQO-59" value="" style="endArrow=none;html=1;rounded=0;entryX=0.343;entryY=0.086;entryDx=0;entryDy=0;exitX=0.75;exitY=1;exitDx=0;exitDy=0;entryPerimeter=0;" edge="1" parent="1" target="Ip7737abw6meWCq8FaQO-58" source="Ip7737abw6meWCq8FaQO-44">
          <mxGeometry relative="1" as="geometry">
            <mxPoint x="684" y="500" as="sourcePoint" />
            <mxPoint x="840" y="534" as="targetPoint" />
          </mxGeometry>
        </mxCell>
        <mxCell id="Ip7737abw6meWCq8FaQO-60" value="alasan" style="ellipse;whiteSpace=wrap;html=1;align=center;" vertex="1" parent="1">
          <mxGeometry x="615" y="530" width="70" height="30" as="geometry" />
        </mxCell>
        <mxCell id="Ip7737abw6meWCq8FaQO-61" value="" style="endArrow=none;html=1;rounded=0;entryX=0.5;entryY=0;entryDx=0;entryDy=0;exitX=0.5;exitY=1;exitDx=0;exitDy=0;" edge="1" parent="1" target="Ip7737abw6meWCq8FaQO-60" source="Ip7737abw6meWCq8FaQO-44">
          <mxGeometry relative="1" as="geometry">
            <mxPoint x="570" y="534" as="sourcePoint" />
            <mxPoint x="745" y="544" as="targetPoint" />
          </mxGeometry>
        </mxCell>
        <mxCell id="Ip7737abw6meWCq8FaQO-62" value="status" style="ellipse;whiteSpace=wrap;html=1;align=center;" vertex="1" parent="1">
          <mxGeometry x="550" y="510" width="70" height="30" as="geometry" />
        </mxCell>
        <mxCell id="Ip7737abw6meWCq8FaQO-63" value="" style="endArrow=none;html=1;rounded=0;entryX=0.758;entryY=0.086;entryDx=0;entryDy=0;exitX=0.25;exitY=1;exitDx=0;exitDy=0;entryPerimeter=0;" edge="1" parent="1" target="Ip7737abw6meWCq8FaQO-62" source="Ip7737abw6meWCq8FaQO-44">
          <mxGeometry relative="1" as="geometry">
            <mxPoint x="565" y="494" as="sourcePoint" />
            <mxPoint x="660" y="544" as="targetPoint" />
          </mxGeometry>
        </mxCell>
      </root>
    </mxGraphModel>
  </diagram>
</mxfile>
